# xmcd
#
# Track frame offsets: 
#        150
#        11914
#        26729
#        38562
#        52989
#        66565
#        78738
#        88522
#        105850
#        119293
#        130609
#        141539
#        154404
#        162894
#        171651
#        180864
#        194098
#        204428
#        214406
#        224517
#        233790
#        248176
#        255223
#        268960
#        280664
#        291107
#
# Disc length: 4050 seconds
#
# Revision: 0
# Processed by: cddbd v1.5.2PL0 Copyright (c) Steve Scherf et al.
# Submitted via: ExactAudioCopy v0.99pb5
#
DISCID=880fd01a
DTITLE=Геннадий Перевалов - Индия, Электрический альбом
DYEAR=1986
DGENRE=Chanson
TTITLE0=Индия
TTITLE1=Осенний марофон
TTITLE2=Пока рука ещё сильна...
TTITLE3=Памяти Э.Хэмингуэя
TTITLE4=Евангелие от тоски
TTITLE5=Снимки
TTITLE6=Твёрдо верю в красоту...
TTITLE7=Споры
TTITLE8=Горы
TTITLE9=Индия (реприза)
TTITLE10=Мистер Блюз
TTITLE11=Прогулка по Екатеринбургу
TTITLE12=Сибирское кино
TTITLE13=Когда-нибудь настанет время...
TTITLE14=Снег
TTITLE15=Коротка у счастья память
TTITLE16=Это уходим мы
TTITLE17=Кораблик
TTITLE18=Железнодорожная песня
TTITLE19=Памяти Вуди Гатри
TTITLE20=Памяти Э.Хемингуэя
TTITLE21=Проклятый взрыв...
TTITLE22=Над городом светает
TTITLE23=Погоды нет...
TTITLE24=Городской концерт
TTITLE25=Осенний город
EXTD=
EXTT0=
EXTT1=
EXTT2=
EXTT3=
EXTT4=
EXTT5=
EXTT6=
EXTT7=
EXTT8=
EXTT9=
EXTT10=
EXTT11=
EXTT12=
EXTT13=
EXTT14=
EXTT15=
EXTT16=
EXTT17=
EXTT18=
EXTT19=
EXTT20=
EXTT21=
EXTT22=
EXTT23=
EXTT24=
EXTT25=
PLAYORDER=
